<svg xmlns="http://www.w3.org/2000/svg" viewBox="0 0 1803.88 568.4"><path d="M416.7,718.26l53.9,85.4-36.4,21.7-55.3-88.9a246.39,246.39,0,0,1-85.4,15.4c-137.2,0-243.6-110.6-243.6-247.1C49.9,367.56,156.3,257,293.5,257s243.6,110.6,243.6,247.8C537.1,595.76,489.5,675.56,416.7,718.26Zm-62.3-19.6-54.6-87.5,35.7-22.4,58.1,92.4c58.8-35.7,97.3-101.5,97.3-176.4,0-112-86.1-204.4-197.4-204.4S96.1,392.76,96.1,504.76s86.1,203.7,197.4,203.7A191.46,191.46,0,0,0,354.4,698.66Z" transform="translate(-49.9 -256.96)"/><path d="M916.5,418v326.9H871.7v-57.4c-19.61,46.2-72.8,64.4-113.4,64.4-79.1,0-133-53.2-132.3-143.5V418h44.8v188.3c0,63,39.2,101.5,92.4,101.5,51.8,0,107.8-29.4,108.5-108.5V418Z" transform="translate(-49.9 -256.96)"/><path d="M1308.48,418l-138.59,326.9h-46.2L987.19,418h47.6l112,272.3L1260.19,418Z" transform="translate(-49.9 -256.96)"/><path d="M1366.59,297.56c0-18.9,16.1-32.2,34.3-32.2,19.6,0,35,13.3,35,32.2,0,18.2-15.4,31.5-35,31.5C1382.69,329.06,1366.59,315.76,1366.59,297.56Zm11.9,120.4h44.8v326.9h-44.8Z" transform="translate(-49.9 -256.96)"/><path d="M1853.78,418v326.9H1809v-63.7c-24.5,44.8-75.6,70.7-130.2,70.7-91,0-165.9-71.4-165.9-170.8s74.2-170.1,165.9-170.1c55.3,0,105.7,25.9,130.2,70V418ZM1809,582.46c0-79.1-61.6-128.8-126.7-128.8-68.6,0-124.6,54.6-124.6,126.7,0,72.8,56,128.8,124.6,128.8C1750.18,709.16,1809,658.06,1809,582.46Z" transform="translate(-49.9 -256.96)"/></svg>